<?xml version="1.0" encoding="UTF-8" standalone="no"?>
<!-- Created with Inkscape (http://www.inkscape.org/) -->

<svg
   xmlns:dc="http://purl.org/dc/elements/1.1/"
   xmlns:cc="http://creativecommons.org/ns#"
   xmlns:rdf="http://www.w3.org/1999/02/22-rdf-syntax-ns#"
   xmlns:svg="http://www.w3.org/2000/svg"
   xmlns="http://www.w3.org/2000/svg"
   xmlns:sodipodi="http://sodipodi.sourceforge.net/DTD/sodipodi-0.dtd"
   xmlns:inkscape="http://www.inkscape.org/namespaces/inkscape"
   width="108.58969mm"
   height="96.504044mm"
   viewBox="0 0 108.5897 96.504041"
   version="1.1"
   id="svg8"
   inkscape:version="0.92.3 (2405546, 2018-03-11)"
   sodipodi:docname="exercises.svg">
  <defs
     id="defs2" />
  <sodipodi:namedview
     id="base"
     pagecolor="#ffffff"
     bordercolor="#666666"
     borderopacity="1.0"
     inkscape:pageopacity="0.0"
     inkscape:pageshadow="2"
     inkscape:zoom="1.4"
     inkscape:cx="83.512496"
     inkscape:cy="216.07383"
     inkscape:document-units="mm"
     inkscape:current-layer="layer1"
     showgrid="false"
     inkscape:window-width="1920"
     inkscape:window-height="962"
     inkscape:window-x="1920"
     inkscape:window-y="26"
     inkscape:window-maximized="1"
     showborder="false"
     fit-margin-top="0"
     fit-margin-left="0"
     fit-margin-right="0"
     fit-margin-bottom="0" />
  <metadata
     id="metadata5">
    <rdf:RDF>
      <cc:Work
         rdf:about="">
        <dc:format>image/svg+xml</dc:format>
        <dc:type
           rdf:resource="http://purl.org/dc/dcmitype/StillImage" />
        <dc:title></dc:title>
      </cc:Work>
    </rdf:RDF>
  </metadata>
  <g
     inkscape:label="Layer 1"
     inkscape:groupmode="layer"
     id="layer1"
     transform="translate(-48.780838,-77.327209)">
    <path
       style="fill:#000000;stroke-width:1.00532711"
       d="M 0 0 L 0 286.33789 L 57.949219 286.33789 L 57.949219 279.81641 C 57.949219 275.38491 61.699378 271.63477 66.130859 271.63477 L 119.99023 271.63477 C 124.42172 271.63477 128.17092 275.38491 128.51172 279.81641 L 128.51172 286.33789 L 204.125 286.33789 C 203.88365 287.11826 203.66853 287.91109 203.50586 288.72461 L 186.80273 364.74023 L 410.41797 364.74023 L 393.71484 288.72461 C 393.55218 287.91109 393.33706 287.11826 393.0957 286.33789 L 398.48828 286.33789 L 398.48828 0 L 0 0 z M 203.34766 52.503906 L 212.66992 52.503906 L 212.66992 68.128906 C 214.07618 66.427514 215.56857 65.17752 217.14844 64.378906 C 218.72828 63.562931 220.47309 63.15625 222.38281 63.15625 C 225.75088 63.15625 228.30295 64.187941 230.03906 66.253906 C 231.79254 68.319897 232.66992 71.324661 232.66992 75.265625 L 232.66992 93.025391 L 223.29492 93.025391 L 223.29492 90.134766 L 223.29492 79.484375 C 223.29492 76.932287 223.23473 75.177516 223.11328 74.222656 C 223.00922 73.267796 222.81693 72.564658 222.53906 72.113281 C 222.17446 71.505634 221.67967 71.036883 221.05469 70.707031 C 220.42968 70.359793 219.71854 70.1875 218.91992 70.1875 C 216.97548 70.1875 215.44704 70.9427 214.33594 72.453125 C 213.22481 73.94619 212.66992 76.019554 212.66992 78.675781 L 212.66992 93.025391 L 203.34766 93.025391 L 203.34766 52.503906 z M 337.22656 53.441406 C 342.33071 53.441406 346.273 55.196177 349.05078 58.703125 C 351.82856 62.192712 353.2168 67.166669 353.2168 73.625 C 353.2168 80.06597 351.82856 85.039927 349.05078 88.546875 C 346.273 92.036462 342.33071 93.78125 337.22656 93.78125 C 332.10503 93.78125 328.15668 92.036462 325.37891 88.546875 C 322.60113 85.039927 321.21094 80.06597 321.21094 73.625 C 321.21094 67.166669 322.60113 62.192712 325.37891 58.703125 C 328.15668 55.196177 332.10503 53.441406 337.22656 53.441406 z M 370.19531 53.441406 C 374.43141 53.441406 377.66058 54.310762 379.88281 56.046875 C 382.10502 57.765628 383.2168 60.2817 383.2168 63.597656 C 383.2168 65.299048 382.87826 66.827461 382.20117 68.181641 C 381.52411 69.518434 380.37023 70.95876 378.73828 72.503906 L 377.07031 73.988281 C 375.88974 75.064666 375.11848 75.934021 374.75391 76.59375 C 374.38933 77.236119 374.20703 77.947262 374.20703 78.728516 L 374.20703 79.900391 L 364.80469 79.900391 L 364.80469 78.625 C 364.80469 77.201403 365.09116 75.941401 365.66406 74.847656 C 366.23699 73.736526 367.44488 72.330273 369.28516 70.628906 L 370.95117 69.119141 C 371.94075 68.216363 372.66188 67.364995 373.11328 66.566406 C 373.58202 65.767792 373.81641 64.970489 373.81641 64.171875 C 373.81641 62.956606 373.39974 62.009121 372.56641 61.332031 C 371.73307 60.637581 370.56921 60.291016 369.07617 60.291016 C 367.66991 60.291016 366.15148 60.585495 364.51953 61.175781 C 362.88761 61.748682 361.1849 62.608054 359.41406 63.753906 L 359.41406 55.578125 C 361.51475 54.848953 363.43381 54.310128 365.16992 53.962891 C 366.90604 53.615678 368.58072 53.441406 370.19531 53.441406 z M 337.22656 60.291016 C 335.07377 60.291016 333.53733 61.288633 332.61719 63.285156 C 331.69705 65.264318 331.23828 68.685747 331.23828 73.546875 C 331.23828 78.460059 331.69705 81.923617 332.61719 83.9375 C 333.53733 85.951409 335.07377 86.957031 337.22656 86.957031 C 339.36197 86.957031 340.89041 85.951409 341.81055 83.9375 C 342.73069 81.923617 343.19141 78.460059 343.19141 73.546875 C 343.19141 68.685747 342.73069 65.264318 341.81055 63.285156 C 340.90777 61.288633 339.37933 60.291016 337.22656 60.291016 z M 261.08203 61.175781 L 294.4668 73.234375 L 294.4668 79.378906 L 261.08203 91.4375 L 261.08203 84.925781 L 286.21094 76.332031 L 261.08203 67.6875 L 261.08203 61.175781 z M 76.732422 63.15625 C 78.451172 63.15625 80.256078 63.286466 82.148438 63.546875 C 84.040792 63.80731 86.098096 64.213991 88.320312 64.769531 L 88.320312 71.853516 C 86.323792 71.020205 84.396703 70.395196 82.539062 69.978516 C 80.681432 69.561861 78.928602 69.353516 77.279297 69.353516 C 75.508462 69.353516 74.188367 69.579874 73.320312 70.03125 C 72.469623 70.465291 72.044922 71.142361 72.044922 72.0625 C 72.044922 72.809007 72.365459 73.38193 73.007812 73.78125 C 73.667537 74.180544 74.839411 74.475023 76.523438 74.666016 L 78.164062 74.900391 C 82.938369 75.508013 86.151476 76.50563 87.800781 77.894531 C 89.450086 79.283407 90.273436 81.462872 90.273438 84.431641 C 90.273438 87.539269 89.127597 89.874993 86.835938 91.4375 C 84.544271 93.000007 81.124783 93.78125 76.576172 93.78125 C 74.649087 93.78125 72.651901 93.625017 70.585938 93.3125 C 68.537325 93.017369 66.427952 92.564678 64.257812 91.957031 L 64.257812 84.875 C 66.115453 85.777778 68.016494 86.454848 69.960938 86.90625 C 71.922737 87.357626 73.911893 87.582031 75.925781 87.582031 C 77.748698 87.582031 79.118931 87.331608 80.039062 86.828125 C 80.959201 86.324667 81.419922 85.577472 81.419922 84.587891 C 81.419922 83.754555 81.099392 83.137601 80.457031 82.738281 C 79.832031 82.321626 78.572042 82.001079 76.679688 81.775391 L 75.039062 81.566406 C 70.889766 81.045562 67.983075 80.082043 66.316406 78.675781 C 64.64974 77.269545 63.816406 75.134111 63.816406 72.269531 C 63.816406 69.179238 64.874133 66.887571 66.992188 65.394531 C 69.110238 63.901467 72.357422 63.15625 76.732422 63.15625 z M 116.28906 63.15625 C 119.88281 63.15625 122.8355 64.588545 125.14453 67.453125 C 127.45356 70.300344 128.60742 73.972221 128.60742 78.46875 C 128.60742 82.965279 127.45356 86.645186 125.14453 89.509766 C 122.8355 92.35701 119.88281 93.78125 116.28906 93.78125 C 114.25781 93.78125 112.46094 93.380645 110.89844 92.582031 C 109.33594 91.766056 107.91363 90.508033 106.62891 88.806641 L 106.62891 104.11914 L 97.304688 104.11914 L 97.304688 63.859375 L 106.62891 63.859375 L 106.62891 68.128906 C 107.91363 66.427514 109.33594 65.17752 110.89844 64.378906 C 112.46094 63.562931 114.25781 63.15625 116.28906 63.15625 z M 149.51953 63.15625 C 154.10286 63.15625 157.76475 64.536459 160.50781 67.296875 C 163.26823 70.057291 164.64844 73.745228 164.64844 78.363281 L 164.64844 81.019531 L 142.85156 81.019531 C 143.07725 83.207046 143.86848 84.847661 145.22266 85.941406 C 146.57682 87.035151 148.46788 87.582031 150.89844 87.582031 C 152.86024 87.582031 154.86545 87.295582 156.91406 86.722656 C 158.98004 86.132395 161.09939 85.246979 163.26953 84.066406 L 163.26953 91.253906 C 161.06467 92.087242 158.85916 92.712251 156.6543 93.128906 C 154.44944 93.562947 152.24392 93.78125 150.03906 93.78125 C 144.76128 93.78125 140.65668 92.443144 137.72266 89.769531 C 134.80599 87.078558 133.34766 83.312517 133.34766 78.46875 C 133.34766 73.711811 134.77995 69.969835 137.64453 67.244141 C 140.52648 64.518446 144.48481 63.15625 149.51953 63.15625 z M 186.28906 63.15625 C 187.81684 63.15625 189.31923 63.294496 190.79492 63.572266 C 192.28798 63.8327 193.77234 64.231352 195.24805 64.769531 L 195.24805 72.375 C 193.98068 71.506943 192.70464 70.863946 191.41992 70.447266 C 190.15256 70.030611 188.83247 69.822266 187.46094 69.822266 C 184.85677 69.822266 182.82552 70.585495 181.36719 72.113281 C 179.92621 73.623681 179.20703 75.743056 179.20703 78.46875 C 179.20703 81.194444 179.92621 83.31987 181.36719 84.847656 C 182.82552 86.358081 184.85677 87.113281 187.46094 87.113281 C 188.91927 87.113281 190.29948 86.896932 191.60156 86.462891 C 192.92101 86.028875 194.13693 85.385852 195.24805 84.535156 L 195.24805 92.166016 C 193.78971 92.70422 192.30534 93.102872 190.79492 93.363281 C 189.30187 93.641077 187.79948 93.78125 186.28906 93.78125 C 181.02865 93.78125 176.91406 92.435114 173.94531 89.744141 C 170.97656 87.035807 169.49219 83.277796 169.49219 78.46875 C 169.49219 73.65973 170.97656 69.909723 173.94531 67.21875 C 176.91406 64.510416 181.02865 63.15625 186.28906 63.15625 z M 27.201172 63.859375 L 36.576172 63.859375 L 36.576172 66.775391 C 36.576172 68.355233 36.568167 70.342439 36.550781 72.738281 C 36.533395 75.116763 36.523438 76.705292 36.523438 77.503906 C 36.523438 79.847642 36.585507 81.540368 36.707031 82.582031 C 36.828556 83.606334 37.03689 84.353503 37.332031 84.822266 C 37.713978 85.429913 38.208769 85.898664 38.816406 86.228516 C 39.441407 86.558368 40.15256 86.722656 40.951172 86.722656 C 42.895615 86.722656 44.424043 85.977414 45.535156 84.484375 C 46.646267 82.99131 47.201172 80.916018 47.201172 78.259766 L 47.201172 63.859375 L 56.523438 63.859375 L 56.523438 93.025391 L 47.201172 93.025391 L 47.201172 88.806641 C 45.794921 90.508033 44.302516 91.766056 42.722656 92.582031 C 41.160157 93.380645 39.431424 93.78125 37.539062 93.78125 C 34.171015 93.78125 31.602863 92.747631 29.832031 90.681641 C 28.078557 88.615675 27.201172 85.612839 27.201172 81.671875 L 27.201172 63.859375 z M 149.4668 69.353516 C 147.66124 69.353516 146.19488 69.866323 145.06641 70.890625 C 143.93794 71.897567 143.23481 73.355905 142.95703 75.265625 L 155.06641 75.265625 C 155.06641 73.49479 154.54557 72.070525 153.50391 70.994141 C 152.4796 69.900396 151.13346 69.353516 149.4668 69.353516 z M 112.82617 69.925781 C 110.82964 69.925781 109.29319 70.664921 108.2168 72.140625 C 107.15777 73.598943 106.62891 75.708334 106.62891 78.46875 C 106.62891 81.229166 107.15777 83.346562 108.2168 84.822266 C 109.29319 86.280609 110.82964 87.009766 112.82617 87.009766 C 114.8227 87.009766 116.34115 86.280609 117.38281 84.822266 C 118.44184 83.363922 118.97266 81.246526 118.97266 78.46875 C 118.97266 75.690974 118.44184 73.571599 117.38281 72.113281 C 116.34115 70.654938 114.8227 69.925781 112.82617 69.925781 z M 364.80469 83.753906 L 374.20703 83.753906 L 374.20703 93.025391 L 364.80469 93.025391 L 364.80469 83.753906 z M 298.60938 113.7832 C 329.29601 113.7832 354.17383 138.66084 354.17383 169.34766 C 354.17383 184.86076 347.42356 195.26786 336.78906 201.77344 L 336.78906 205.89062 C 336.78906 227.02461 319.7432 244.06836 298.60938 244.06836 C 277.47539 244.06836 260.43164 227.02563 260.43164 205.89062 L 260.43164 202.74805 C 249.64364 196.32677 243.04687 185.65492 243.04688 169.34766 C 243.04688 138.66084 267.92256 113.7832 298.60938 113.7832 z M 273.42969 246.66016 L 298.60938 262 L 323.79102 246.66016 L 333.37891 255.6582 L 318.04102 276.45312 L 312.89258 271.0332 L 307.75781 276.16797 L 317.01758 326.06055 L 298.60938 356.74023 L 280.20312 326.06055 L 289.46289 276.16797 L 284.32812 271.0332 L 279.17969 276.45312 L 263.83984 255.6582 L 273.42969 246.66016 z "
       transform="matrix(0.26458333,0,0,0.26458333,48.780838,77.327209)"
       id="rect4646" />
    <g
       aria-label=" uspech &gt; 0?   "
       style="font-style:normal;font-variant:normal;font-weight:normal;font-stretch:normal;font-size:10.58333302px;line-height:1.25;font-family:'Segoe Script';-inkscape-font-specification:'Segoe Script';letter-spacing:-0.16404167px;word-spacing:0px;fill:#ffffff;fill-opacity:1;stroke:none;stroke-width:0.26458332"
       id="text4711"
       transform="translate(2.7802786)" />
    <g
       id="g4662"
       transform="matrix(0.26599278,0,0,0.26599278,33.809171,54.32841)"
       style="fill:#000000" />
    <g
       id="g4672"
       transform="matrix(0.26599278,0,0,0.26599278,33.809171,54.32841)"
       style="fill:#ffffff" />
    <g
       aria-label="uspech &gt; 0?"
       style="font-style:normal;font-weight:normal;font-size:10.58333302px;line-height:1.25;font-family:sans-serif;letter-spacing:0px;word-spacing:0px;fill:#000000;fill-opacity:1;stroke:none;stroke-width:0.26458332"
       id="text821"
       transform="translate(0,-8.9958338)" />
    <path
       style="fill:#000000;stroke-width:0.24516265"
       d="m 127.85788,109.01746 c -7.1092,0 -12.87235,5.76315 -12.87235,12.87239 0,3.54785 0.45153,5.97757 2.68555,7.48841 v -3.43982 c 10.14163,2.24446 14.69593,-3.60789 15.77661,-6.35101 h 0.16625 c -0.16623,1.66245 0.87924,4.27258 4.2875,6.18462 v 3.26358 c 2.18174,-1.5206 2.82883,-3.79394 2.82883,-7.14578 0,-7.10924 -5.76316,-12.87239 -12.87239,-12.87239 z"
       id="rect4646-4"
       inkscape:connector-curvature="0"
       sodipodi:nodetypes="ssccccccss" />
  </g>
</svg>
