<svg xmlns="http://www.w3.org/2000/svg" viewBox="0 0 954 1024" width="954" height="1024">
	<defs>
		<clipPath clipPathUnits="userSpaceOnUse" id="cp1">
			<path d="M0 0L954 0L954 1024L0 1024Z" />
		</clipPath>
	</defs>
	<style>
		tspan { white-space:pre }
		.shp0 { fill: #000000 } 
		.shp1 { fill: #000000 } 
	</style>
	<g id="Page 1" clip-path="url(#cp1)">
		<path id="Path 1" class="shp0" d="M195.52 279.45C272.57 279.45 335.25 216.77 335.25 139.73C335.25 62.68 272.57 0 195.52 0C118.48 0 55.8 62.68 55.8 139.73C55.8 216.77 118.48 279.45 195.52 279.45Z" />
		<path id="Path 2" fill-rule="evenodd" class="shp1" d="M953.59 483.52L953.59 598.75L309.54 598.75L309.54 455.54L953.59 455.54C953.59 473 953.58 468.06 953.58 483.52L953.59 483.52ZM518.14 508.57L480.41 508.57L480.41 546.3L518.14 546.3L518.14 508.57ZM439.11 508.57L401.38 508.57L401.38 546.3L439.11 546.3L439.11 508.57ZM596.53 508.57L558.81 508.57L558.81 546.3L596.53 546.3L596.53 508.57Z" />
		<path id="Path 3" class="shp0" d="M269.54 415.5C289.96 415.5 282.05 415.54 297.49 415.54L390.11 415.54C387.15 396.22 378.02 378.9 364.8 365.69C348.53 349.42 326.07 339.34 301.31 339.34L89.82 339.34C65.07 339.34 42.61 349.42 26.34 365.68C10.08 381.95 0 404.41 0 429.16L0 624.78C0 646.72 8 666.92 21.24 682.62C29.09 691.92 38.81 699.62 49.8 705.12L49.8 994.05C49.8 1010.59 63.21 1024 79.75 1024L269.54 1024L269.54 415.5Z" />
		<path id="Path 4" fill-rule="evenodd" class="shp1" d="M953.58 1024L308.66 1024L308.66 632.61L953.58 632.61L953.58 1001.41C953.65 1014.59 953.58 1004.67 953.58 1024ZM684.93 720.75L647.08 712.42L591.92 958.15L629.77 966.48L684.93 720.75ZM507.27 839.45L571.57 775.8L544.14 748.65L452.43 839.45L544.14 930.25L571.57 903.1L507.27 839.45ZM824.42 839.45L732.71 748.65L705.29 775.8L769.58 839.45L705.29 903.1L732.71 930.25L824.42 839.45Z" />
	</g>
</svg>