<svg height="496pt" viewBox="0 0 496 496" width="496pt" xmlns="http://www.w3.org/2000/svg"><path d="m267.199219 383.199219c-8-3.199219-30.398438-2.398438-38.398438 0-20.800781 4.800781-56 22.402343-56 60l-.800781 45.601562c0 1.597657.800781 3.199219 1.601562 4.800781.796876 1.597657 3.199219 1.597657 4.796876 1.597657h132.800781l4.800781.800781h.800781c1.597657 0 3.199219-.800781 4-1.601562 1.597657-1.597657 2.398438-3.199219 2.398438-4.796876v-46.402343c0-38.398438-34.398438-56-56-60zm0 0"/><path d="m288.800781 323.199219c0-22.53125-18.265625-40.800781-40.800781-40.800781s-40.800781 18.269531-40.800781 40.800781c0 22.535156 18.265625 40.800781 40.800781 40.800781s40.800781-18.265625 40.800781-40.800781zm0 0"/><path d="m440 383.199219c-8-3.199219-30.398438-2.398438-38.398438 0-20.800781 4.800781-56 22.402343-56 60l-.800781 45.601562c0 1.597657.800781 3.199219 1.597657 4.800781.800781 1.597657 3.203124 1.597657 4.800781 1.597657h132.800781l4.800781.800781h.800781c1.597657 0 3.199219-.800781 4-1.601562 1.597657-1.597657 2.398438-3.199219 2.398438-4.796876v-46.402343c0-38.398438-35.199219-56-56-60zm0 0"/><path d="m461.601562 323.199219c0-22.53125-18.269531-40.800781-40.800781-40.800781-22.535156 0-40.800781 18.269531-40.800781 40.800781 0 22.535156 18.265625 40.800781 40.800781 40.800781 22.53125 0 40.800781-18.265625 40.800781-40.800781zm0 0"/><path d="m95.199219 383.199219c-8-3.199219-30.398438-2.398438-38.398438 0-20.800781 4.800781-56 22.402343-56 60l-.800781 45.601562c0 1.597657.800781 3.199219 1.601562 4.800781.796876 1.597657 3.199219 1.597657 4.796876 1.597657h132.800781l4.800781.800781h.800781c1.597657 0 3.199219-.800781 4-1.601562 1.597657-1.597657 2.398438-3.199219 2.398438-4.796876v-46.402343c0-38.398438-35.199219-56-56-60zm0 0"/><path d="m116 323.199219c0-22.53125-18.265625-40.800781-40.800781-40.800781-22.53125 0-40.800781 18.269531-40.800781 40.800781 0 22.535156 18.269531 40.800781 40.800781 40.800781 22.535156 0 40.800781-18.265625 40.800781-40.800781zm0 0"/><path d="m34.398438 234.398438c3.203124.800781 7.203124 0 9.601562-2.398438 2.398438-1.601562 4-4.800781 4-8v-55.199219c0-2.402343 1.601562-4 4-4s4 1.597657 4 4v85.597657h80.800781v-80c0-2.398438 1.597657-4 4-4 2.398438 0 4 1.601562 4 4v10.402343l51.199219 28c4 1.597657 8 .800781 12-.800781s7.199219-5.601562 8.800781-9.601562c0-.796876.800781-1.597657.800781-2.398438v-.800781c0-1.597657 0-3.199219 0-4.800781 0-1.597657-.800781-2.398438-1.601562-4v-.796876c-.800781-1.601562-1.601562-2.402343-2.398438-3.203124l-.800781-.796876c-1.601562-.800781-2.402343-2.402343-4-2.402343l-39.199219-20.800781c-.800781 0-.800781-.796876-1.601562-.796876l.800781-1.601562-19.199219-30.398438c-5.601562-8.800781-15.203124-15.203124-24.800781-16-.800781 0-1.601562 0-2.402343 0h-50.398438c-5.601562 0-12 .796876-16.800781 3.199219-4.800781 1.597657-8.800781 5.597657-12 9.597657-11.199219 16.800781-17.597657 36-17.597657 56.800781v40c0 5.601562 4 10.402343 8.796876 11.199219zm177.601562-47.199219"/><path d="m132 62.398438c0-19.878907-16.117188-36-36-36s-36 16.121093-36 36c0 19.882812 16.117188 36 36 36s36-16.117188 36-36zm0 0"/><path d="m209.601562 171.199219 50.398438-74.398438 10.398438 7.199219-50.398438 74.398438c1.601562 1.601562 2.398438 2.402343 3.199219 4 2.402343 3.203124 4 7.203124 4.800781 11.203124h229.601562v-193.601562h-282.402343v149.601562l2.402343 4zm206.398438-142.398438h12.800781v142.398438h-12.800781zm-44.800781 64h12.800781v79.199219h-12.800781zm-32.800781 24.800781h12.800781v53.597657h-12.800781zm-33.597657-30.402343h12.800781v84h-12.800781zm0 0"/></svg>