<?xml version="1.0" encoding="iso-8859-1"?>
<!-- Generator: Adobe Illustrator 19.0.0, SVG Export Plug-In . SVG Version: 6.00 Build 0)  -->
<svg version="1.1" id="Capa_1" xmlns="http://www.w3.org/2000/svg" xmlns:xlink="http://www.w3.org/1999/xlink" x="0px" y="0px"
	 viewBox="0 0 512 512" style="enable-background:new 0 0 512 512;" xml:space="preserve">
<g>
	<g>
		<polygon points="512,429.504 512,355.27 0,355.27 0,429.504 207.372,429.504 207.372,482 148.855,482 148.855,512 363.146,512 
			363.146,482 304.628,482 304.628,429.504 		"/>
	</g>
</g>
<g>
	<g>
		<rect y="74.78" width="102.69" height="250.49"/>
	</g>
</g>
<g>
	<g>
		<rect x="409.31" y="74.78" width="102.69" height="250.49"/>
	</g>
</g>
<g>
	<g>
		<path d="M153.075,81.616c-11.258,0-20.384,9.124-20.387,20.381V325.27h40.774V102.003
			C173.462,90.743,164.334,81.616,153.075,81.616z"/>
	</g>
</g>
<g>
	<g>
		<path d="M223.849,81.616c-11.259,0-20.387,9.127-20.387,20.387V325.27h40.774V101.997
			C244.233,90.74,235.107,81.616,223.849,81.616z"/>
	</g>
</g>
<g>
	<g>
		<path d="M188.462,0l-43.699,52.313c2.706-0.451,5.48-0.698,8.312-0.698c13.778,0.001,26.282,5.559,35.387,14.552
			c9.105-8.993,21.609-14.551,35.388-14.551c2.832,0,5.605,0.247,8.311,0.698L188.462,0z"/>
	</g>
</g>
<g>
	<g>
		<rect x="285.9" y="130.86" width="93.42" height="194.41"/>
	</g>
</g>
<g>
	<g>
		<polygon points="351.602,0 347.605,0 347.605,66.167 317.605,66.167 317.605,0 313.608,0 283.284,68.238 296.313,100.857 
			368.897,100.857 381.926,68.238 		"/>
	</g>
</g>
<g>
</g>
<g>
</g>
<g>
</g>
<g>
</g>
<g>
</g>
<g>
</g>
<g>
</g>
<g>
</g>
<g>
</g>
<g>
</g>
<g>
</g>
<g>
</g>
<g>
</g>
<g>
</g>
<g>
</g>
</svg>
