<svg height="434pt" viewBox="-4 0 434 434" width="434pt" xmlns="http://www.w3.org/2000/svg"><path d="m0 288h426v54h-426zm0 0"/><path d="m100 415h226v19h-226zm0 0"/><path d="m213.023438 190.761719c25.617187-.042969 46.351562-20.835938 46.324218-46.449219-.027344-25.617188-20.808594-46.363281-46.425781-46.351562-25.613281.015624-46.375 20.785156-46.375 46.398437.050781 25.636719 20.839844 46.394531 46.476563 46.402344zm0 0"/><path d="m159.726562 356-14.863281 45h136.273438l-14.863281-45zm0 0"/><path d="m134.289062 161.199219c2.070313 9.5625 5.910157 18.652343 11.328126 26.800781 1.710937 2.574219 1.53125 5.964844-.441407 8.34375l-11.117187 13.40625 13.621094 13.597656 13.421874-11.113281c2.351563-1.941406 5.6875-2.132813 8.25-.476563 8.207032 5.386719 17.324219 9.238282 26.90625 11.375 2.996094.675782 5.21875 3.203126 5.507813 6.261719l1.683594 17.605469h19.375l1.691406-17.605469c.28125-3.074219 2.496094-5.628906 5.5-6.347656 9.570313-2.050781 18.675781-5.878906 26.835937-11.285156 2.574219-1.699219 5.953126-1.515625 8.328126.449219l13.414062 11.125 13.617188-13.59375-11.128907-13.40625c-1.964843-2.355469-2.164062-5.714844-.5-8.285157 5.363281-8.207031 9.199219-17.316406 11.324219-26.882812.621094-2.945313 3.074219-5.148438 6.066406-5.449219l17.027344-1.683594v-19.335937l-17.300781-1.6875c-2.988281-.304688-5.421875-2.53125-5.992188-5.480469-2.066406-9.5625-5.90625-18.652344-11.324219-26.800781-1.710937-2.570313-1.53125-5.964844.441407-8.34375l11.140625-13.4375-13.398438-13.539063-13.386718 11.101563c-2.351563 1.945312-5.6875 2.144531-8.253907.496093-8.207031-5.378906-17.324219-9.222656-26.902343-11.347656-2.988282-.644531-5.214844-3.148437-5.507813-6.191406l-1.691406-17.46875h-19.375l-1.6875 17.472656c-.289063 3.042969-2.511719 5.550782-5.5 6.210938-9.574219 2.050781-18.675781 5.875-26.839844 11.285156-2.570313 1.699219-5.953125 1.515625-8.324219-.449219l-13.414062-11.125-13.613282 13.589844 11.128907 13.410156c1.964843 2.351563 2.167969 5.710938.5 8.285157-5.359375 8.207031-9.195313 17.3125-11.324219 26.882812-.617188 2.945312-3.074219 5.152344-6.070312 5.449219l-17.304688 1.6875v19.328125l17.300781 1.691406c2.988281.300781 5.421875 2.53125 5.988281 5.480469zm78.734376-77.226563c33.347656.042969 60.351562 27.101563 60.324218 60.449219s-27.078125 60.363281-60.425781 60.351563c-33.347656-.015626-60.375-27.050782-60.375-60.402344.054687-33.363282 27.109375-60.386719 60.476563-60.402344zm0 0"/><path d="m0 274h426v-274h-426zm97-145.652344c-.078125-3.574218 2.597656-6.605468 6.152344-6.96875l18.714844-1.828125c2.167968-7.722656 5.304687-15.140625 9.332031-22.082031l-11.988281-14.460938c-2.308594-2.785156-2.117188-6.867187.441406-9.421874l22.648437-22.601563c2.554688-2.550781 6.632813-2.738281 9.414063-.4375l14.4375 11.96875c6.945312-4.058594 14.394531-7.191406 22.15625-9.316406l1.820312-18.828125c.34375-3.597656 3.355469-6.351563 6.972656-6.371094h32.078126c3.613281.019531 6.625 2.773438 6.96875 6.367188l1.820312 18.855468c7.738281 2.164063 15.167969 5.300782 22.117188 9.332032l14.476562-12.003907c2.789062-2.316406 6.886719-2.113281 9.4375.464844l22.367188 22.597656c2.527343 2.5625 2.699218 6.625.398437 9.394531l-11.984375 14.433594c4.050781 6.933594 7.171875 14.367188 9.285156 22.113282l18.78125 1.824218c3.554688.363282 6.230469 3.394532 6.152344 6.96875v32.035156c.078125 3.570313-2.59375 6.601563-6.144531 6.96875l-18.445313 1.820313c-2.167968 7.726563-5.304687 15.148437-9.332031 22.089844l11.988281 14.460937c2.3125 2.785156 2.117188 6.871094-.445312 9.425782l-22.644532 22.609374c-2.554687 2.554688-6.632812 2.746094-9.414062.445313l-14.441406-11.953125c-6.941406 4.070312-14.390625 7.214844-22.152344 9.351562l-1.820312 18.898438c-.335938 3.621094-3.332032 6.417969-6.96875 6.5h-32.078126c-3.636718-.082031-6.636718-2.878906-6.96875-6.5l-1.820312-18.988281c-7.738281-2.164063-15.171875-5.300781-22.117188-9.332031l-14.476562 12c-2.78125 2.300781-6.855469 2.113281-9.410156-.4375l-22.644532-22.597657c-2.554687-2.558593-2.742187-6.640625-.433593-9.421875l11.988281-14.433594c-4.046875-6.933593-7.167969-14.367187-9.285156-22.113281l-18.777344-1.824219c-3.554688-.363281-6.234375-3.394531-6.15625-6.96875zm0 0"/></svg>