<?xml version="1.0" encoding="utf-8"?>
<!-- Generator: Adobe Illustrator 16.0.0, SVG Export Plug-In . SVG Version: 6.00 Build 0)  -->
<!DOCTYPE svg PUBLIC "-//W3C//DTD SVG 1.1//EN" "http://www.w3.org/Graphics/SVG/1.1/DTD/svg11.dtd">
<svg version="1.1" id="Vrstva_1" xmlns:serif="http://www.serif.com/"
	 xmlns="http://www.w3.org/2000/svg" xmlns:xlink="http://www.w3.org/1999/xlink" x="0px" y="0px" width="419.527px"
	 height="419.527px" viewBox="0 0 419.527 419.527" enable-background="new 0 0 419.527 419.527" xml:space="preserve">
<g transform="matrix(1,0,0,1,757,2404.89)">
	<path fill="#FFFFFF" d="M-605.925-2380.97h117.377c75.63,0,136.938,61.313,136.938,136.94v121.726
		c0,75.632-61.309,136.941-136.938,136.941h-117.377c-75.629,0-136.938-61.312-136.938-136.941v-121.726
		C-742.865-2319.66-681.553-2380.97-605.925-2380.97"/>
</g>
<g>
	<g transform="matrix(1,0,0,1,796.253,2126.69)">
		<path fill="#EF6534" d="M-586.493-2064.09c0,0,13.799,0,28.958,3.607c8.823-12.125,20.427-32.043,31.901-46.048
			c-17.383-20.161-60.859-20.161-60.859-20.161s-43.471,0-60.862,20.161c11.479,14.008,23.084,33.922,31.904,46.047
			C-600.296-2064.09-586.493-2064.09-586.493-2064.09"/>
	</g>
	<g transform="matrix(1,0,0,1,812,2372.71)">
		<path fill="#EF6534" d="M-578.701-2281.673c-12.879-2.455-23.539-2.457-23.539-2.457s-10.662,0.007-23.537,2.461l-37.321,205.539
			l60.858,77.287l60.863-77.287L-578.701-2281.673z"/>
	</g>
</g>
</svg>
